<svg class="svg-icon" style="width: 1em; height: 1em;vertical-align: middle;fill: currentColor;overflow: hidden;" viewBox="0 0 1024 1024" version="1.1" xmlns="http://www.w3.org/2000/svg"><path d="M624.112 547.68c9.76-8.768 15.888-21.52 15.888-35.68s-6.144-26.896-15.888-35.68l-160-144a48 48 0 0 0-64.224 71.36L466.912 464H176a48 48 0 1 0 0 96h290.912l-67.024 60.32a48 48 0 1 0 64.224 71.36l160-144zM896 510.912V142.96a48 48 0 0 0-48-48H608a48 48 0 1 0 0 96h192v640H608a48 48 0 1 0 0 96h240a48 48 0 0 0 48-48V510.992v-0.048-0.032z" fill="" /></svg>